<svg xmlns="http://www.w3.org/2000/svg" width="336.3" height="50.287" viewBox="0 0 336.3 50.287">
  <g id="Group_40" data-name="Group 40" transform="translate(-129 246)">
    <g id="Group_38" data-name="Group 38" transform="translate(129 -246)">
      <path id="Path_12" data-name="Path 12" d="M26.166,43.444H33.63V24.66A3.707,3.707,0,0,0,32.531,22L21.458,10.929A3.691,3.691,0,0,0,18.8,9.83H0v7.481H20.555a5.61,5.61,0,0,1,5.61,5.61Z" transform="translate(0 6.001)" fill="#fff"/>
      <path id="Path_13" data-name="Path 13" d="M30.2,43.444H22.72V24.66A3.708,3.708,0,0,1,23.819,22L34.892,10.929a3.691,3.691,0,0,1,2.658-1.1h18.8v7.481H35.795a5.61,5.61,0,0,0-5.61,5.61Z" transform="translate(14.552 6.001)" fill="#fff"/>
      <path id="Path_14" data-name="Path 14" d="M63.8,10.128h5.775v5.217h.131a10.237,10.237,0,0,1,8.76-6,17.537,17.537,0,0,1,4.085.459v5.545a9.187,9.187,0,0,0-3.429-.591c-5.545,0-9.17,5.282-9.17,13.731V43.79H63.8Z" transform="translate(40.863 5.687)" fill="#fff"/>
      <path id="Path_15" data-name="Path 15" d="M187.906,30.7c0,5.069-3.281,8.924-9.351,8.924-2.822,0-6.25-1.936-6.25-5.512,0-5.988,8.3-6.562,11.647-6.562,1.312,0,2.625.131,3.954.131ZM169.86,17.785a15.617,15.617,0,0,1,9.745-3.494c6.185,0,8.284,3.018,8.284,8.826-2.428-.131-4.15-.131-6.562-.131-6.382,0-15.617,2.625-15.617,11.073,0,7.382,5.086,10.532,12.32,10.532a12.468,12.468,0,0,0,10.4-5.1h.131V43.77h5.512V23.215c0-9.187-3.872-13.895-13.468-13.895a21.49,21.49,0,0,0-11.139,3.15Z" transform="translate(106.135 5.674)" fill="#fff"/>
      <path id="Path_16" data-name="Path 16" d="M96.621,30.7c0,5.069-3.281,8.924-9.351,8.924-2.838,0-6.25-1.936-6.25-5.512,0-5.988,8.3-6.562,11.647-6.562,1.312,0,2.625.131,3.954.131ZM78.576,17.785a15.617,15.617,0,0,1,9.843-3.494c6.185,0,8.3,3.018,8.3,8.826-2.428-.131-4.15-.131-6.562-.131-6.381,0-15.617,2.625-15.617,11.073,0,7.382,5.086,10.532,12.32,10.532a12.468,12.468,0,0,0,10.4-5.1h.131V43.77h5.463V23.215c0-9.187-3.872-13.895-13.468-13.895A21.49,21.49,0,0,0,78.33,12.47Z" transform="translate(47.742 5.674)" fill="#fff"/>
      <path id="Path_17" data-name="Path 17" d="M94.88,10.17h5.971v5.217h.131a12.123,12.123,0,0,1,11.04-6.1c8.711,0,12.566,5.381,12.566,14.42V43.8h-6.168V26.362c0-7.858-1.64-11.7-7.136-12.025-7.07,0-10.237,5.692-10.237,13.911V43.8H94.88Z" transform="translate(60.769 5.644)" fill="#fff"/>
      <path id="Path_18" data-name="Path 18" d="M137.755,37.231a16.5,16.5,0,0,0,7.71,2.379c2.822,0,6.316-1.2,6.316-4.839,0-6.168-14.551-5.627-14.551-15.109,0-7,5.217-10.351,11.861-10.351a25.411,25.411,0,0,1,7.71,1.329L156.276,16a18.045,18.045,0,0,0-6.562-1.723c-3.15,0-5.922,1.329-5.922,4.118,0,6.89,14.551,4.921,14.551,15.716,0,7.2-5.742,10.483-11.729,10.483a19.423,19.423,0,0,1-9.22-1.837Z" transform="translate(87.894 5.668)" fill="#fff"/>
      <path id="Path_19" data-name="Path 19" d="M173.325,18.6h-8.908V37.067c0,3.9,2.379,6.021,5.2,6.021a7.628,7.628,0,0,0,4.216-1.2v5.25a19.587,19.587,0,0,1-5.266.919c-6.381,0-10.319-3-10.319-9.744V18.628H150.67V13.707h7.579V5.849l6.168-1.969v9.744h8.908Z" transform="translate(96.502 2.19)" fill="#fff"/>
      <path id="Path_20" data-name="Path 20" d="M192.135,32.694c-.131-6.168,2.51-12.533,9.22-12.533s9.941,6.431,9.941,12.73c0,5.627-2.9,12.6-9.843,12.6C194.776,45.474,192,37.977,192.135,32.694Zm19.423,16.93h5.906V.18H211.3V20.555h-.131c-1.9-3.084-5.184-5.381-11.122-5.381-9.744,0-14.5,7.956-14.5,17.012s4.282,18.259,14.436,18.259a13.485,13.485,0,0,0,11.483-5.512h.131Z" transform="translate(118.836 -0.18)" fill="#fff"/>
      <path id="Path_21" data-name="Path 21" d="M122.151,32.694c-.131-6.168,2.51-12.533,9.22-12.533s9.941,6.431,9.941,12.73c0,5.627-2.9,12.6-9.843,12.6C124.776,45.474,122,37.977,122.151,32.694Zm19.423,16.946h5.889V.18H141.3V20.555h-.131c-1.9-3.084-5.184-5.381-11.123-5.381-9.744,0-14.5,7.956-14.5,17.012s4.282,18.259,14.436,18.259a13.485,13.485,0,0,0,11.483-5.512h.131Z" transform="translate(74.002 -0.18)" fill="#fff"/>
    </g>
  </g>
</svg>
